<?xml version="1.0" encoding="UTF-8"?>
<svg xmlns="http://www.w3.org/2000/svg" width="208" height="50" viewBox="0 0 208 50" fill="#ffffff">
  <path d="M38.5704 24.1351L39.2877 24.0882L40.005 16.8211L47.3679 19.0688L47.7022 18.3515L41.2951 14.1453L46.5724 9.13373L46.1033 8.49654L39.575 11.704L37.9019 5.01153L37.1846 5.05844L36.6588 11.9425L29.2959 9.69469L28.9617 10.3632L35.3688 14.6183L27.4801 21.215L28.1486 22.1708L37.0419 17.0556L38.5704 24.1351ZM29.2471 50C32.1164 50 34.458 49.14 34.458 48.0396V46.4622C34.458 45.3149 35.5095 44.9807 35.7968 44.7891C36.9911 44.0249 37.9 42.7818 37.9 39.9613C37.9 38.2393 38.4257 37.0451 39.0473 35.9935L41.0546 37.3324L43.8282 35.0377L42.3935 31.883C43.062 31.1188 43.6366 30.3057 44.1155 29.4457L47.6064 29.8288L48.9453 26.4825L46.029 24.2348C46.3164 22.6086 46.3633 21.8443 46.3633 21.5101L42.7297 20.4097C42.8255 23.7559 41.6782 27.1979 39.145 29.9246C36.4203 32.8408 34.6984 35.4697 34.6984 39.2948C34.6984 40.3952 34.3641 41.1106 33.551 41.5895C32.691 42.1641 31.3033 42.4026 29.249 42.4026C27.2417 42.4026 25.807 42.1641 24.947 41.5895C24.1339 41.1106 23.7996 40.3952 23.7996 39.2948C23.7996 37.6881 23.7664 35.1198 20.43 31.0973C18.6278 32.2329 16.4231 33.9158 14.9063 35.2312L17.4395 37.3832L19.4468 36.0443C19.9257 36.7617 20.3068 37.5748 20.4515 38.3879C16.6264 40.2037 13.2801 41.4956 10.6981 42.213C7.01766 43.2176 6.10878 42.5961 5.87032 42.3087C5.72764 42.1172 5.72764 41.8299 5.77455 41.5445C6.05405 40.0219 8.19041 37.5298 11.6735 34.5686C16.0283 30.8647 17.4473 29.9402 25.9008 23.7794L25.2324 22.8236C23.4635 23.9709 20.3576 25.9587 17.7287 27.7276C16.4856 25.6714 15.7683 23.234 15.7683 20.7478C15.7683 13.338 21.7923 7.26516 29.2021 7.26516C30.971 7.26516 32.693 7.59939 34.2703 8.26981L34.6045 4.20625C33.7445 3.91892 32.8826 3.68047 32.0225 3.53778L31.0179 0H27.4332L26.4286 3.58469C25.1854 3.77624 24.2766 4.06356 23.7508 4.25316L21.1688 1.52066L18.0141 3.24264L18.7783 6.8762C18.061 7.45084 17.3925 8.02353 16.7221 8.74086L13.2313 7.54662L11.2239 10.5098L13.6144 13.3791C13.2313 14.1922 12.9459 15.0522 12.6586 15.9611L9.02501 16.5826L8.64191 20.1673L12.0839 21.5062C12.1797 22.9409 12.3712 23.9436 12.467 24.2797L9.55079 26.5275L10.8897 29.8737L14.4275 29.4906C14.4744 29.6333 14.5701 29.778 14.6659 29.9206C6.10878 36.1362 0.610561 41.6813 0.0359154 44.6933C-0.0598589 45.268 0.0359152 45.7938 0.323238 46.1749C0.706335 46.7007 1.42366 46.9391 2.42636 46.9391C6.15569 46.9391 13.757 43.544 20.5941 39.5293V39.9593C20.5941 42.7798 21.503 44.0229 22.7461 44.7871C23.0335 44.9787 24.0361 45.3618 24.0361 46.4603V48.0376C24.0361 49.138 26.3797 50 29.2471 50Z" fill="white"></path>
  <path d="M58.7725 19.192H60.8091C61.5167 19.192 61.9662 18.7424 61.9662 18.0349V6.88792C61.9662 6.18036 61.5167 5.73081 60.8091 5.73081H58.7725V3.67264H68.6333V5.73081H66.6181C65.9106 5.73081 65.461 6.18036 65.461 6.88792V18.0349C65.461 18.7424 65.9106 19.192 66.6181 19.192H69.1258C69.7259 19.192 70.1129 18.8069 70.1129 18.2049V11.0903C70.1129 10.4902 69.7279 10.1032 69.1258 10.1032H68.6333V8.21703H72.9412L73.3262 10.7892C74.0338 9.09659 75.3629 8.00202 77.3996 8.00202C79.9288 8.00202 81.5159 9.63214 81.5159 12.0109V18.2069C81.5159 18.8714 82.0945 19.407 82.716 19.407H82.9955V21.2501H76.7565V19.407H77.0145C77.6146 19.407 78.1501 18.8714 78.1501 18.2069V12.4624C78.1501 11.3053 77.4641 10.3182 76.221 10.3182C74.5068 10.3182 73.4767 12.2689 73.4767 14.198V18.2069C73.4767 18.8714 74.0123 19.407 74.6123 19.407H74.8703V21.2501H58.7725V19.192ZM88.6755 8.04502C90.3252 8.04502 91.6328 8.83858 92.4693 10.2537V6.54587C92.4693 5.94581 92.0843 5.5588 91.4842 5.5588H90.7337V3.67264H95.8351V18.4219C95.8351 19.0219 96.2202 19.407 96.8222 19.407H97.6802V21.2501H93.2434L92.5573 19.0845C91.7207 20.5856 90.3916 21.4202 88.6775 21.4202C85.5267 21.4202 83.5115 18.8695 83.5115 14.7316C83.5096 10.5957 85.5247 8.04502 88.6755 8.04502ZM89.7271 19.149C91.4217 19.149 92.4713 17.5834 92.4713 14.7336C92.4713 12.0109 91.4217 10.3182 89.7271 10.3182C88.0129 10.3182 86.9184 12.0109 86.9184 14.7336C86.9184 17.5853 88.011 19.149 89.7271 19.149ZM97.2932 8.21703H102.139V16.6412C102.139 17.9919 102.868 19.0415 103.982 19.0415C105.653 19.0415 106.597 17.0263 106.597 14.6261V11.0883C106.597 10.4882 106.212 10.1012 105.61 10.1012H104.902V8.21507H109.961V18.3769C109.961 19.02 110.303 19.364 110.948 19.364H111.44V21.2501H107.133L106.789 18.9789C105.952 20.523 104.623 21.4651 102.866 21.4651C100.444 21.4651 98.7709 19.921 98.7709 17.3273V11.2603C98.7709 10.5957 98.1923 10.0602 97.5708 10.0602H97.2913V8.21703H97.2932ZM116.479 8.04502C118.366 8.04502 119.159 8.90308 119.888 8.90308C120.273 8.90308 120.531 8.64508 120.531 8.21703H122.267V12.7184H120.766C120.015 11.0043 118.665 9.76114 117.036 9.76114C115.772 9.76114 115.406 10.5977 115.406 11.0473C115.406 13.684 123.08 12.6989 123.08 17.6713C123.08 20.0285 121.129 21.4221 118.708 21.4221C116.692 21.4221 115.729 20.5641 114.957 20.5641C114.529 20.5641 114.314 20.8221 114.314 21.2501H112.492V16.3402H114.206C114.699 18.5274 116.649 19.6415 118.065 19.6415C119.243 19.6415 119.886 18.977 119.886 18.1619C119.886 15.4607 112.32 16.6608 112.32 11.7529C112.32 9.54614 113.907 8.04502 116.479 8.04502ZM123.488 8.21703H124.11C125.74 8.19553 126.768 6.71591 126.768 5.15225H128.568V8.21703H131.334V10.1032H128.568V17.7769C128.568 18.7424 129.19 19.364 130.156 19.364H132.878V19.407C133.435 19.321 133.928 18.8069 133.928 18.2069V11.2603C133.928 10.5957 133.349 10.0602 132.728 10.0602H132.448V8.21703H136.651L136.909 10.8322C137.595 8.92458 138.881 8.02352 140.382 8.02352C141.732 8.02352 142.569 8.77408 142.569 9.84519C142.569 10.8107 141.883 11.5594 140.96 11.5594C140.016 11.5594 139.803 10.7658 138.967 10.7658C137.874 10.7658 137.296 11.8369 137.296 14.2391V18.3769C137.296 18.977 137.681 19.364 138.283 19.364H139.612V21.2501H128.25C126.385 21.2501 125.207 20.0715 125.207 18.2069V10.1032H123.492V8.21703H123.488ZM142.933 19.407H143.212C143.834 19.407 144.412 18.8714 144.412 18.2069V11.2603C144.412 10.5957 143.941 10.0602 143.449 10.0602H143.234V8.21703H147.778V18.2069C147.778 18.8714 148.357 19.407 148.978 19.407H149.258V21.2501H142.935V19.407H142.933ZM146.062 3.13708C147.305 3.13708 148.077 3.88764 148.077 5.06625C148.077 6.24486 147.305 6.99542 146.062 6.99542C144.819 6.99542 144.047 6.24486 144.047 5.06625C144.047 3.88764 144.819 3.13708 146.062 3.13708ZM158.323 19.1705C157.551 20.7361 156.009 21.4632 154.228 21.4632C151.955 21.4632 150.284 20.0481 150.284 17.9254C150.284 15.1812 152.148 14.1101 154.635 13.424L157.979 12.5015V12.1379C157.979 10.8303 157.121 10.0152 155.77 10.0152C154.398 10.0152 153.198 10.8518 152.34 12.7595H150.688V8.21703H152.402C152.402 8.75258 152.661 9.05359 153.067 9.05359C153.732 9.05359 154.59 8.04698 156.732 8.04698C159.24 8.04698 161.341 9.16109 161.341 12.6559V18.3789C161.341 18.9789 161.726 19.3659 162.328 19.3659H163.786C164.279 19.2154 164.687 18.7659 164.687 18.2088V6.50286C164.687 5.90281 164.302 5.51776 163.702 5.51776H162.951V3.67459H168.053V18.2088C168.053 18.8734 168.631 19.4089 169.253 19.4089H169.532V21.2521H158.921L158.323 19.1705ZM155.323 19.063C156.91 19.063 157.981 17.4329 157.981 15.3766V14.284L155.559 15.1421C154.572 15.4861 153.694 16.2347 153.694 17.4778C153.693 18.5489 154.422 19.063 155.323 19.063Z" fill="white"></path>
  <path d="M58.7725 42.7739H60.1446C60.8521 42.7739 61.3017 42.3244 61.3017 41.6168V30.4679C61.3017 29.7603 60.8521 29.3108 60.1446 29.3108H58.7725V27.2526H67.7537V29.3108H65.9536C65.246 29.3108 64.7965 29.7603 64.7965 30.4679V42.772H68.1622C69.5344 42.772 70.3924 41.9139 70.3924 40.5418V38.6126H72.7496V44.8301H58.7725V42.7739ZM73.8422 42.987H74.1217C74.7433 42.987 75.3218 42.4514 75.3218 41.7869V34.6702C75.3218 34.0702 74.9368 33.6832 74.3367 33.6832H74.0572V31.797H78.6876V41.7869C78.6876 42.4514 79.2662 42.987 79.8877 42.987H80.1672V44.8301H73.8442V42.987H73.8422ZM76.993 26.7171C78.2361 26.7171 79.0082 27.4676 79.0082 28.6462C79.0082 29.8248 78.2361 30.5754 76.993 30.5754C75.7499 30.5754 74.9778 29.8248 74.9778 28.6462C74.9778 27.4676 75.7499 26.7171 76.993 26.7171ZM82.3525 43.8235C81.8599 43.3955 81.5804 42.8795 81.5804 42.2149C81.5804 41.0578 82.1805 40.3932 83.2105 40.0492C81.8384 39.2987 81.0878 37.9911 81.0878 36.2769C81.0878 33.5327 83.0385 31.797 86.4043 31.797H92.9639V33.6832H90.8842C91.4197 34.3907 91.7207 35.2703 91.7207 36.2769C91.7207 39.0211 89.7701 40.7568 86.4043 40.7568H86.3183C85.2042 40.7568 84.1956 40.6063 84.1956 41.2493C84.1956 41.9139 85.2667 41.7849 87.7119 41.8709C90.9702 41.9784 92.6843 43.2 92.6843 45.4927C92.6843 48.0219 90.4327 49.5016 86.2323 49.5016C82.4385 49.5016 80.5953 48.3015 80.5953 46.3723C80.5953 45.2386 81.1308 44.3376 82.3525 43.8235ZM86.3398 47.5529C88.613 47.5314 89.4261 46.7808 89.4261 45.9872C89.4261 45.0432 88.269 44.8301 86.3183 44.8086C85.3117 44.8086 84.4321 44.6796 83.7246 44.4881C83.189 44.7461 82.845 45.2386 82.845 45.8817C82.845 47.0818 84.1096 47.5744 86.3398 47.5529ZM86.4043 39.3006C87.5399 39.3006 88.2475 38.0575 88.2475 36.2789C88.2475 34.5002 87.5399 33.2571 86.4043 33.2571C85.2687 33.2571 84.5611 34.5002 84.5611 36.2789C84.5611 38.0575 85.2667 39.3006 86.4043 39.3006ZM93.1769 27.2526H98.0653V34.0487C98.7943 32.5476 100.08 31.584 101.988 31.584C104.517 31.584 106.104 33.2141 106.104 35.5928V41.7888C106.104 42.4534 106.683 42.9889 107.305 42.9889H107.584V44.8321H101.261V42.9889H101.541C102.162 42.9889 102.741 42.4534 102.741 41.7888V36.0443C102.741 34.8872 102.055 33.9001 100.811 33.9001C99.0973 33.9001 98.0672 35.8508 98.0672 37.78V41.7888C98.0672 42.4534 98.6458 42.9889 99.2674 42.9889H99.5469V44.8321H93.2238V42.9889H93.5033C94.1249 42.9889 94.7034 42.4534 94.7034 41.7888V30.1278C94.7034 29.5278 94.3184 29.1407 93.7164 29.1407H93.1808V27.2526H93.1769ZM107.09 31.797H107.819C109.449 31.7755 110.477 30.2959 110.477 28.7322H112.277V31.797H115.086V33.6402H112.277V41.1008C112.277 42.1719 112.77 42.772 113.649 42.772C114.464 42.772 114.871 42.0429 114.871 40.8213H116.157C116.157 43.716 114.742 45.0432 112.363 45.0432C110.133 45.0432 108.911 43.8001 108.911 41.5054V33.6382H107.09V31.797Z" fill="white"></path>
  <path d="M129.853 43.544C128.653 44.4881 127.173 45.0451 125.416 45.0451C122.029 45.0451 120.014 43.0945 120.014 40.2857C120.014 37.606 121.835 35.7843 124.881 35.2703L122.201 30.8334V28.7322H133.262V30.7904H126.339L130.991 38.5501C131.548 37.1135 131.849 35.4853 131.827 33.9842H136.157V36.1284H133.606C133.391 37.737 132.92 39.2791 132.234 40.6082L132.726 41.4233C133.434 42.6019 134.397 42.7739 135.47 42.7739H136.157V44.8321H130.625L129.853 43.544ZM126.573 42.6664C127.41 42.6664 128.16 42.3459 128.825 41.8299L125.76 36.7499C124.474 37.3715 123.723 38.4856 123.723 39.7717C123.723 41.4018 124.945 42.6664 126.573 42.6664Z" fill="white"></path>
  <path d="M140.015 42.7739H141.387C142.094 42.7739 142.544 42.3244 142.544 41.6168V30.4679C142.544 29.7603 142.094 29.3108 141.387 29.3108H140.015V27.2526H148.161L151.869 38.7846L155.577 27.2526H163.616V29.3108H162.244C161.536 29.3108 161.087 29.7603 161.087 30.4679V41.6148C161.087 42.3224 161.536 42.772 162.244 42.772H163.616V44.8301H155.364V42.772H156.435C157.143 42.772 157.592 42.3224 157.592 41.6148V29.6743L152.405 44.8301H150.304L145.116 29.6743V41.6148C145.116 42.3224 145.566 42.772 146.273 42.772H147.344V44.8301H140.013V42.7739H140.015ZM168.61 37.0079L171.954 36.0854V35.7218C171.954 34.4142 171.096 33.5991 169.746 33.5991C168.374 33.5991 167.173 34.4357 166.315 36.3434H164.666V31.797H166.38C166.38 32.3326 166.638 32.6336 167.044 32.6336C167.709 32.6336 168.567 31.627 170.709 31.627C173.217 31.627 175.318 32.7411 175.318 36.2359V41.9589C175.318 42.5589 175.703 42.9459 176.305 42.9459H177.12V44.8321H172.896L172.296 42.7524C171.524 44.318 169.982 45.0451 168.202 45.0451C165.928 45.0451 164.257 43.63 164.257 41.5073C164.259 38.7651 166.124 37.692 168.61 37.0079ZM169.296 42.6449C170.883 42.6449 171.954 41.0148 171.954 38.9586V37.866L169.533 38.724C168.546 39.068 167.668 39.8166 167.668 41.0597C167.666 42.1309 168.395 42.6449 169.296 42.6449ZM178.75 43.8235C178.258 43.3955 177.978 42.8795 177.978 42.2149C177.978 41.0578 178.578 40.3932 179.608 40.0492C178.236 39.2987 177.486 37.9911 177.486 36.2769C177.486 33.5327 179.436 31.797 182.802 31.797H189.362V33.6832H187.282C187.818 34.3907 188.119 35.2703 188.119 36.2769C188.119 39.0211 186.168 40.7568 182.802 40.7568H182.716C181.602 40.7568 180.594 40.6063 180.594 41.2493C180.594 41.9139 181.665 41.7849 184.11 41.8709C187.368 41.9784 189.082 43.2 189.082 45.4927C189.082 48.0219 186.831 49.5016 182.63 49.5016C178.836 49.5016 176.993 48.3015 176.993 46.3723C176.991 45.2386 177.527 44.3376 178.75 43.8235ZM182.738 47.5529C185.009 47.5314 185.824 46.7808 185.824 45.9872C185.824 45.0432 184.667 44.8301 182.716 44.8086C181.71 44.8086 180.83 44.6796 180.123 44.4881C179.587 44.7461 179.243 45.2386 179.243 45.8817C179.243 47.0818 180.508 47.5744 182.738 47.5529ZM182.8 39.3006C183.936 39.3006 184.643 38.0575 184.643 36.2789C184.643 34.5002 183.936 33.2571 182.8 33.2571C181.665 33.2571 180.957 34.5002 180.957 36.2789C180.957 38.0575 181.665 39.3006 182.8 39.3006ZM189.897 42.987H190.177C190.798 42.987 191.377 42.4514 191.377 41.7869V34.6702C191.377 34.0702 190.992 33.6832 190.39 33.6832H190.11V31.797H194.741V41.7869C194.741 42.4514 195.319 42.987 195.941 42.987H196.22V44.8301H189.897V42.987ZM193.048 26.7171C194.291 26.7171 195.063 27.4676 195.063 28.6462C195.063 29.8248 194.291 30.5754 193.048 30.5754C191.805 30.5754 191.033 29.8248 191.033 28.6462C191.033 27.4676 191.805 26.7171 193.048 26.7171ZM202.5 31.627C204.193 31.627 204.879 32.4205 205.565 32.4205C205.888 32.4205 206.101 32.227 206.101 31.7775H207.815V36.3434H206.185C205.692 34.4787 204.557 33.7711 203.312 33.7711C201.404 33.7711 200.204 35.5283 200.204 38.3155C200.204 41.1027 201.404 42.8599 203.376 42.8599C205.155 42.8599 206.376 41.0597 206.376 39.5371H207.964C207.964 42.5159 206.077 45.0041 202.841 45.0041C199.238 45.0041 196.838 42.4319 196.838 38.3155C196.838 34.1992 199.414 31.627 202.5 31.627Z" fill="white"></path>
</svg>
