<?xml version="1.0" encoding="UTF-8"?>
<svg id="Layer_2" data-name="Layer 2" xmlns="http://www.w3.org/2000/svg" viewBox="0 0 499.53 487.04">
  <defs>
    <style>
      .cls-1 {
        fill: #99f;
      }

      .cls-2 {
        fill: #00005b;
      }
    </style>
  </defs>
  <g id="Layer_1-2" data-name="Layer 1">
    <g id="Layer_2-2" data-name="Layer 2">
      <g id="Surfaces">
        <g id="Video_Audio_Surface" data-name="Video Audio Surface">
          <g id="Outline_no_shadow" data-name="Outline no shadow">
            <path id="path4" class="cls-2" d="m88.46,0h322.61c48.91,0,88.46,39.55,88.46,88.46v310.12c0,48.91-39.55,88.46-88.46,88.46H88.46c-48.91,0-88.46-39.55-88.46-88.46V88.46C0,39.55,39.55,0,88.46,0Z"/>
          </g>
        </g>
      </g>
      <g id="Outlined_Mnemonics_Logos" data-name="Outlined Mnemonics Logos">
        <g id="Pr">
          <path id="path9" class="cls-1" d="m118.64,341.55V127.38c0-1.46.62-2.29,2.08-2.29,3.54,0,6.87,0,11.66-.21,5-.21,10.2-.21,15.82-.42,5.62-.21,11.66-.21,18.11-.42,6.45-.21,12.7-.21,18.94-.21,17.07,0,31.22,2.08,42.88,6.45,10.41,3.54,19.98,9.37,27.89,17.07,6.66,6.66,11.86,14.78,15.19,23.73,3.12,8.74,4.79,17.69,4.79,27.06,0,17.9-4.16,32.68-12.49,44.33s-19.98,20.4-33.51,25.39c-14.15,5.2-29.76,7.08-46.83,7.08-5,0-8.33,0-10.41-.21s-5-.21-8.95-.21v66.81c.21,1.46-.83,2.71-2.29,2.91h-40.38c-1.67,0-2.5-.83-2.5-2.71Zm45.37-176.29v69.93c2.91.21,5.62.42,8.12.42h11.03c8.12,0,16.23-1.25,23.94-3.75,6.66-1.87,12.49-5.83,17.07-11.03,4.37-5.2,6.45-12.28,6.45-21.44.21-6.45-1.46-12.9-4.79-18.52-3.54-5.41-8.53-9.57-14.57-11.86-7.7-3.12-16.03-4.37-24.56-4.16-5.41,0-10.2,0-14.15.21-4.16-.21-7.08,0-8.53.21h0Z"/>
          <path id="path11" class="cls-1" d="m305.13,177.33h36.42c2.08,0,3.75,1.46,4.37,3.33.62,1.67,1.04,3.33,1.25,5.2.42,2.08.83,4.37,1.04,6.45.21,2.29.42,4.79.42,7.49,6.24-7.28,13.74-13.32,22.27-17.9,9.57-5.41,20.61-8.12,31.64-8.12,1.46-.21,2.71.83,2.91,2.29v41.42c0,1.67-1.04,2.29-3.33,2.29-7.49-.21-15.19.42-22.48,2.08-6.04,1.25-11.86,3.12-17.48,5.62-3.95,1.87-7.7,4.37-10.61,7.7v106.15c0,2.08-.83,2.91-2.71,2.91h-41c-1.67.21-3.12-.83-3.33-2.5v-116.14c0-5,0-10.2-.21-15.61s-.21-10.82-.42-16.23c0-4.79-.42-9.37-.83-14.15-.21-1.04.42-2.08,1.46-2.29,0-.21.42-.21.62,0h0Z"/>
        </g>
      </g>
    </g>
  </g>
</svg>