<?xml version="1.0" encoding="UTF-8"?>
<svg id="Layer_2" data-name="Layer 2" xmlns="http://www.w3.org/2000/svg" viewBox="0 0 425.2 414.6">
  <defs>
    <style>
      .cls-1 {
        fill: #001e36;
      }

      .cls-2 {
        fill: #31a8ff;
      }
    </style>
  </defs>
  <g id="Layer_1-2" data-name="Layer 1">
    <g id="Layer_2-2" data-name="Layer 2">
      <g id="Surfaces">
        <g id="Photo_Surface" data-name="Photo Surface">
          <g id="Outline_no_shadow" data-name="Outline no shadow">
            <path class="cls-1" d="m75.3,0h274.6c41.6,0,75.3,33.7,75.3,75.3v264c0,41.6-33.7,75.3-75.3,75.3H75.3c-41.6,0-75.3-33.7-75.3-75.3V75.3C0,33.7,33.7,0,75.3,0Z"/>
          </g>
        </g>
      </g>
      <g id="Outlined_Mnemonics_Logos" data-name="Outlined Mnemonics Logos">
        <g id="Ps">
          <path class="cls-2" d="m95.7,290.7V108.4c0-1.2.5-1.9,1.8-1.9,3,0,5.8,0,9.9-.2,4.3-.2,8.7-.2,13.5-.4s9.9-.2,15.4-.4,10.8-.2,16.1-.2c14.5,0,26.6,1.8,36.5,5.5,8.9,3,17,8,23.7,14.5,5.7,5.7,10.1,12.6,12.9,20.2,2.7,7.4,4.1,15.1,4.1,23,0,15.2-3.5,27.8-10.6,37.7s-17,17.4-28.5,21.6c-12,4.4-25.3,6-39.9,6-4.3,0-7.1,0-8.9-.2-1.8-.2-4.3-.2-7.6-.2v56.9c.2,1.2-.7,2.3-1.9,2.5h-34.4c-1.4.2-2.1-.5-2.1-2.1Zm38.6-150v59.5c2.5.2,4.8.4,6.9.4h9.4c6.9,0,13.8-1.1,20.4-3.2,5.7-1.6,10.6-5,14.5-9.4,3.7-4.4,5.5-10.5,5.5-18.2.2-5.5-1.2-11-4.1-15.8-3-4.6-7.3-8.1-12.4-10.1-6.6-2.7-13.6-3.7-20.9-3.5-4.6,0-8.7,0-12,.2-3.6-.3-6.1-.1-7.3.1h0Z"/>
          <path class="cls-2" d="m340.2,189.4c-5.3-2.8-11-4.8-17-6-6.6-1.4-13.1-2.3-19.8-2.3-3.5-.2-7.3.4-10.6,1.2-2.3.5-4.3,1.8-5.5,3.5-.9,1.4-1.4,3.2-1.4,4.8s.7,3.2,1.8,4.6c1.6,1.9,3.7,3.5,6,4.8,4.1,2.1,8.3,4.1,12.6,5.8,9.6,3.2,18.8,7.6,27.3,12.9,5.8,3.7,10.6,8.7,14,14.7,2.8,5.7,4.3,11.9,4.1,18.2.2,8.3-2.3,16.7-6.9,23.6-5,7.1-11.9,12.6-19.8,15.8-8.7,3.7-19.3,5.7-32.1,5.7-8.1,0-16.1-.7-24.1-2.3-6.2-1.1-12.4-3-18.1-5.7-1.2-.7-2.1-1.9-1.9-3.4v-30.8c0-.5.2-1.2.7-1.6s1.1-.2,1.6.2c6.9,4.1,14.2,6.9,22,8.7,6.7,1.8,13.8,2.7,20.9,2.7,6.7,0,11.5-.9,14.7-2.5,2.8-1.2,4.8-4.3,4.8-7.4,0-2.5-1.4-4.8-4.3-7.1-2.8-2.3-8.7-5-17.4-8.3-9-3.2-17.4-7.4-25.2-12.8-5.5-3.9-10.1-9-13.5-15.1-2.8-5.7-4.3-11.9-4.1-18.1,0-7.6,2.1-14.9,6-21.4,4.4-7.1,11-12.8,18.6-16.3,8.3-4.3,18.8-6.2,31.4-6.2,7.3,0,14.7.5,22,1.6,5.3.7,10.5,2.1,15.2,4.1.7.2,1.4.9,1.8,1.6.2.7.4,1.4.4,2.1v28.9c0,.7-.4,1.4-.9,1.8-1.7.4-2.6.4-3.3,0Z"/>
        </g>
      </g>
    </g>
  </g>
</svg>